<?xml version="1.0" encoding="UTF-8"?>
<svg id="Capa_1" xmlns="http://www.w3.org/2000/svg" xmlns:xlink="http://www.w3.org/1999/xlink" width="24px"
    height="24px" viewBox="0 0 24 24" version="1.1">
    <g id="surface1">
        <path style=" stroke:none;fill-rule:nonzero;fill:rgb(0%,0%,0%);fill-opacity:1;"
            d="M 15.925781 1.890625 C 15.425781 1.414062 14.769531 1.152344 14.082031 1.152344 C 13.585938 1.152344 13.097656 1.292969 12.671875 1.5625 L 5.355469 6.148438 L 2.683594 6.148438 C 1.214844 6.148438 0.0234375 7.339844 0.0234375 8.808594 L 0.0234375 15.195312 C 0.0234375 16.660156 1.214844 17.855469 2.683594 17.855469 L 5.339844 17.855469 L 12.671875 22.449219 C 13.097656 22.714844 13.585938 22.859375 14.082031 22.859375 C 14.769531 22.859375 15.425781 22.59375 15.925781 22.117188 C 16.179688 21.875 16.378906 21.589844 16.519531 21.265625 C 16.667969 20.929688 16.746094 20.570312 16.746094 20.195312 L 16.746094 3.8125 C 16.746094 3.441406 16.667969 3.082031 16.519531 2.742188 C 16.378906 2.421875 16.179688 2.136719 15.925781 1.890625 Z M 14.773438 12 L 14.773438 20.195312 C 14.773438 20.601562 14.441406 20.886719 14.082031 20.886719 C 13.960938 20.886719 13.835938 20.855469 13.71875 20.78125 L 6.308594 16.136719 C 6.046875 15.972656 5.742188 15.882812 5.429688 15.882812 L 2.683594 15.882812 C 2.300781 15.882812 1.992188 15.574219 1.992188 15.195312 L 1.992188 8.808594 C 1.992188 8.425781 2.300781 8.117188 2.683594 8.117188 L 5.445312 8.117188 C 5.753906 8.117188 6.058594 8.027344 6.324219 7.863281 L 13.71875 3.230469 C 13.835938 3.15625 13.960938 3.121094 14.082031 3.121094 C 14.441406 3.121094 14.773438 3.410156 14.773438 3.8125 Z M 14.773438 12 " />
        <path style=" stroke:none;fill-rule:nonzero;fill:rgb(0%,0%,0%);fill-opacity:1;"
            d="M 14.082031 22.878906 C 13.582031 22.878906 13.089844 22.738281 12.660156 22.46875 L 5.332031 17.878906 L 2.683594 17.878906 C 1.203125 17.878906 0 16.671875 0 15.195312 L 0 8.808594 C 0 7.328125 1.203125 6.125 2.683594 6.125 L 5.347656 6.125 L 12.660156 1.542969 C 13.089844 1.273438 13.582031 1.128906 14.082031 1.128906 C 14.777344 1.128906 15.4375 1.394531 15.941406 1.875 C 16.195312 2.121094 16.398438 2.410156 16.542969 2.734375 C 16.691406 3.074219 16.765625 3.4375 16.765625 3.8125 L 16.765625 20.195312 C 16.765625 20.570312 16.691406 20.933594 16.542969 21.277344 C 16.398438 21.601562 16.195312 21.890625 15.941406 22.136719 C 15.4375 22.617188 14.777344 22.878906 14.082031 22.878906 Z M 2.683594 6.171875 C 1.230469 6.171875 0.046875 7.351562 0.046875 8.808594 L 0.046875 15.195312 C 0.046875 16.648438 1.230469 17.832031 2.683594 17.832031 L 5.347656 17.832031 L 5.351562 17.835938 L 12.683594 22.429688 C 13.105469 22.695312 13.589844 22.835938 14.082031 22.835938 C 14.765625 22.835938 15.414062 22.574219 15.910156 22.101562 C 16.160156 21.859375 16.359375 21.578125 16.5 21.257812 C 16.648438 20.921875 16.722656 20.566406 16.722656 20.195312 L 16.722656 3.8125 C 16.722656 3.445312 16.648438 3.089844 16.5 2.753906 C 16.359375 2.433594 16.160156 2.152344 15.910156 1.910156 C 15.414062 1.4375 14.765625 1.175781 14.082031 1.175781 C 13.589844 1.175781 13.105469 1.316406 12.683594 1.578125 L 5.359375 6.171875 Z M 14.082031 20.910156 C 13.949219 20.910156 13.820312 20.871094 13.707031 20.800781 L 6.296875 16.15625 C 6.035156 15.992188 5.738281 15.90625 5.429688 15.90625 L 2.683594 15.90625 C 2.289062 15.90625 1.96875 15.585938 1.96875 15.195312 L 1.96875 8.808594 C 1.96875 8.414062 2.289062 8.09375 2.683594 8.09375 L 5.445312 8.09375 C 5.75 8.09375 6.050781 8.007812 6.3125 7.84375 L 13.707031 3.210938 C 13.820312 3.136719 13.949219 3.101562 14.082031 3.101562 C 14.476562 3.101562 14.796875 3.421875 14.796875 3.8125 L 14.796875 20.195312 C 14.796875 20.589844 14.476562 20.910156 14.082031 20.910156 Z M 2.683594 8.140625 C 2.316406 8.140625 2.015625 8.4375 2.015625 8.808594 L 2.015625 15.195312 C 2.015625 15.5625 2.316406 15.863281 2.683594 15.863281 L 5.429688 15.863281 C 5.746094 15.863281 6.054688 15.949219 6.320312 16.117188 L 13.730469 20.761719 C 13.835938 20.828125 13.960938 20.863281 14.082031 20.863281 C 14.453125 20.863281 14.75 20.566406 14.75 20.195312 L 14.75 3.8125 C 14.75 3.445312 14.453125 3.144531 14.082031 3.144531 C 13.960938 3.144531 13.835938 3.179688 13.730469 3.25 L 6.335938 7.882812 C 6.070312 8.050781 5.761719 8.140625 5.445312 8.140625 Z M 2.683594 8.140625 " />
        <path style=" stroke:none;fill-rule:nonzero;fill:rgb(0%,0%,0%);fill-opacity:1;"
            d="M 19.507812 7.195312 C 19.265625 6.710938 18.671875 6.511719 18.1875 6.753906 C 17.699219 6.996094 17.5 7.585938 17.742188 8.074219 C 18.3125 9.222656 18.617188 10.585938 18.617188 12.011719 C 18.617188 13.460938 18.304688 14.835938 17.71875 15.996094 C 17.472656 16.480469 17.667969 17.074219 18.152344 17.320312 C 18.292969 17.394531 18.445312 17.425781 18.597656 17.425781 C 18.957031 17.425781 19.300781 17.230469 19.476562 16.886719 C 20.203125 15.453125 20.585938 13.765625 20.585938 12.011719 C 20.585938 10.28125 20.210938 8.617188 19.507812 7.195312 Z M 19.507812 7.195312 " />
        <path style=" stroke:none;fill-rule:nonzero;fill:rgb(0%,0%,0%);fill-opacity:1;"
            d="M 18.597656 17.449219 C 18.4375 17.449219 18.285156 17.414062 18.140625 17.339844 C 17.644531 17.089844 17.445312 16.484375 17.699219 15.988281 C 18.285156 14.832031 18.59375 13.457031 18.59375 12.011719 C 18.59375 10.585938 18.292969 9.230469 17.722656 8.085938 C 17.601562 7.84375 17.582031 7.570312 17.667969 7.316406 C 17.753906 7.058594 17.933594 6.851562 18.175781 6.734375 C 18.316406 6.664062 18.46875 6.628906 18.625 6.628906 C 19.007812 6.628906 19.355469 6.839844 19.527344 7.1875 C 20.234375 8.609375 20.609375 10.277344 20.609375 12.011719 C 20.609375 13.769531 20.222656 15.460938 19.496094 16.898438 C 19.324219 17.238281 18.976562 17.449219 18.597656 17.449219 Z M 18.625 6.671875 C 18.476562 6.671875 18.332031 6.707031 18.195312 6.773438 C 17.964844 6.886719 17.796875 7.085938 17.714844 7.328125 C 17.632812 7.574219 17.648438 7.832031 17.761719 8.0625 C 18.335938 9.214844 18.640625 10.582031 18.640625 12.011719 C 18.640625 13.460938 18.328125 14.84375 17.738281 16.007812 C 17.5 16.480469 17.6875 17.058594 18.160156 17.300781 C 18.296875 17.371094 18.445312 17.40625 18.597656 17.40625 C 18.960938 17.40625 19.289062 17.203125 19.453125 16.878906 C 20.179688 15.445312 20.5625 13.761719 20.5625 12.011719 C 20.5625 10.285156 20.191406 8.625 19.484375 7.207031 C 19.324219 6.878906 18.992188 6.671875 18.625 6.671875 Z M 18.625 6.671875 " />
        <path style=" stroke:none;fill-rule:nonzero;fill:rgb(0%,0%,0%);fill-opacity:1;"
            d="M 20.992188 4.058594 C 20.503906 4.300781 20.304688 4.890625 20.546875 5.378906 C 21.507812 7.3125 22.019531 9.601562 22.019531 11.992188 C 22.019531 14.421875 21.496094 16.738281 20.503906 18.695312 C 20.257812 19.179688 20.453125 19.769531 20.9375 20.015625 C 21.082031 20.089844 21.234375 20.125 21.382812 20.125 C 21.742188 20.125 22.089844 19.925781 22.261719 19.582031 C 23.390625 17.355469 23.988281 14.730469 23.988281 11.992188 C 23.988281 9.296875 23.40625 6.707031 22.3125 4.5 C 22.070312 4.011719 21.476562 3.816406 20.992188 4.058594 Z M 20.992188 4.058594 " />
        <path style=" stroke:none;fill-rule:nonzero;fill:rgb(0%,0%,0%);fill-opacity:1;"
            d="M 21.382812 20.148438 C 21.222656 20.148438 21.070312 20.109375 20.929688 20.039062 C 20.6875 19.914062 20.507812 19.707031 20.425781 19.453125 C 20.34375 19.195312 20.363281 18.921875 20.484375 18.683594 C 21.472656 16.734375 21.996094 14.417969 21.996094 11.992188 C 21.996094 9.605469 21.488281 7.320312 20.527344 5.386719 C 20.277344 4.890625 20.484375 4.285156 20.980469 4.035156 C 21.121094 3.964844 21.273438 3.929688 21.429688 3.929688 C 21.8125 3.929688 22.160156 4.144531 22.332031 4.492188 C 23.429688 6.699219 24.011719 9.296875 24.011719 11.992188 C 24.011719 14.734375 23.414062 17.363281 22.28125 19.59375 C 22.109375 19.933594 21.765625 20.148438 21.382812 20.148438 Z M 21.429688 3.976562 C 21.277344 3.976562 21.136719 4.011719 21 4.078125 C 20.769531 4.191406 20.597656 4.390625 20.515625 4.632812 C 20.433594 4.875 20.453125 5.136719 20.566406 5.367188 C 21.53125 7.304688 22.042969 9.597656 22.042969 11.992188 C 22.042969 14.425781 21.515625 16.746094 20.527344 18.703125 C 20.410156 18.933594 20.390625 19.195312 20.46875 19.4375 C 20.550781 19.683594 20.71875 19.878906 20.949219 19.996094 C 21.085938 20.066406 21.230469 20.101562 21.382812 20.101562 C 21.746094 20.101562 22.078125 19.898438 22.242188 19.574219 C 23.367188 17.347656 23.964844 14.726562 23.964844 11.992188 C 23.964844 9.300781 23.386719 6.714844 22.289062 4.511719 C 22.125 4.179688 21.796875 3.976562 21.429688 3.976562 Z M 21.429688 3.976562 " />
    </g>
</svg>