<?xml version="1.0" encoding="UTF-8"?>
<!DOCTYPE svg PUBLIC "-//W3C//DTD SVG 1.1//EN" "http://www.w3.org/Graphics/SVG/1.1/DTD/svg11.dtd">
<svg id="Capa_1" xmlns="http://www.w3.org/2000/svg" xmlns:xlink="http://www.w3.org/1999/xlink" width="24px" height="24px" viewBox="0 0 24 24" version="1.1">
<g id="surface1">
<path style=" stroke:none;fill-rule:nonzero;fill:rgb(0%,0%,0%);fill-opacity:1;" d="M 15.925781 1.890625 C 15.425781 1.414062 14.769531 1.152344 14.082031 1.152344 C 13.585938 1.152344 13.097656 1.292969 12.671875 1.5625 L 5.355469 6.148438 L 2.683594 6.148438 C 1.214844 6.148438 0.0234375 7.339844 0.0234375 8.808594 L 0.0234375 15.195312 C 0.0234375 16.660156 1.214844 17.855469 2.683594 17.855469 L 5.339844 17.855469 L 12.671875 22.449219 C 13.097656 22.714844 13.585938 22.859375 14.082031 22.859375 C 14.769531 22.859375 15.425781 22.59375 15.925781 22.117188 C 16.179688 21.875 16.378906 21.589844 16.519531 21.265625 C 16.667969 20.929688 16.746094 20.570312 16.746094 20.195312 L 16.746094 3.8125 C 16.746094 3.441406 16.667969 3.082031 16.519531 2.742188 C 16.378906 2.421875 16.179688 2.136719 15.925781 1.890625 Z M 14.773438 12 L 14.773438 20.195312 C 14.773438 20.601562 14.441406 20.886719 14.082031 20.886719 C 13.960938 20.886719 13.835938 20.855469 13.71875 20.78125 L 6.308594 16.136719 C 6.046875 15.972656 5.742188 15.882812 5.429688 15.882812 L 2.683594 15.882812 C 2.300781 15.882812 1.992188 15.574219 1.992188 15.195312 L 1.992188 8.808594 C 1.992188 8.425781 2.300781 8.117188 2.683594 8.117188 L 5.445312 8.117188 C 5.753906 8.117188 6.058594 8.027344 6.324219 7.863281 L 13.71875 3.230469 C 13.835938 3.15625 13.960938 3.121094 14.082031 3.121094 C 14.441406 3.121094 14.773438 3.410156 14.773438 3.8125 Z M 14.773438 12 "/>
<path style=" stroke:none;fill-rule:nonzero;fill:rgb(0%,0%,0%);fill-opacity:1;" d="M 14.082031 22.878906 C 13.582031 22.878906 13.089844 22.738281 12.660156 22.46875 L 5.332031 17.878906 L 2.683594 17.878906 C 1.203125 17.878906 0 16.671875 0 15.195312 L 0 8.808594 C 0 7.328125 1.203125 6.125 2.683594 6.125 L 5.347656 6.125 L 12.660156 1.542969 C 13.089844 1.273438 13.582031 1.128906 14.082031 1.128906 C 14.777344 1.128906 15.4375 1.394531 15.941406 1.875 C 16.195312 2.121094 16.398438 2.410156 16.542969 2.734375 C 16.691406 3.074219 16.765625 3.4375 16.765625 3.8125 L 16.765625 20.195312 C 16.765625 20.570312 16.691406 20.933594 16.542969 21.277344 C 16.398438 21.601562 16.195312 21.890625 15.941406 22.136719 C 15.4375 22.617188 14.777344 22.878906 14.082031 22.878906 Z M 2.683594 6.171875 C 1.230469 6.171875 0.046875 7.351562 0.046875 8.808594 L 0.046875 15.195312 C 0.046875 16.648438 1.230469 17.832031 2.683594 17.832031 L 5.347656 17.832031 L 5.351562 17.835938 L 12.683594 22.429688 C 13.105469 22.695312 13.589844 22.835938 14.082031 22.835938 C 14.765625 22.835938 15.414062 22.574219 15.910156 22.101562 C 16.160156 21.859375 16.359375 21.578125 16.5 21.257812 C 16.648438 20.921875 16.722656 20.566406 16.722656 20.195312 L 16.722656 3.8125 C 16.722656 3.445312 16.648438 3.089844 16.5 2.753906 C 16.359375 2.433594 16.160156 2.152344 15.910156 1.910156 C 15.414062 1.4375 14.765625 1.175781 14.082031 1.175781 C 13.589844 1.175781 13.105469 1.316406 12.683594 1.578125 L 5.359375 6.171875 Z M 14.082031 20.910156 C 13.949219 20.910156 13.820312 20.871094 13.707031 20.800781 L 6.296875 16.15625 C 6.035156 15.992188 5.738281 15.90625 5.429688 15.90625 L 2.683594 15.90625 C 2.289062 15.90625 1.96875 15.585938 1.96875 15.195312 L 1.96875 8.808594 C 1.96875 8.414062 2.289062 8.09375 2.683594 8.09375 L 5.445312 8.09375 C 5.75 8.09375 6.050781 8.007812 6.3125 7.84375 L 13.707031 3.210938 C 13.820312 3.136719 13.949219 3.101562 14.082031 3.101562 C 14.476562 3.101562 14.796875 3.421875 14.796875 3.8125 L 14.796875 20.195312 C 14.796875 20.589844 14.476562 20.910156 14.082031 20.910156 Z M 2.683594 8.140625 C 2.316406 8.140625 2.015625 8.4375 2.015625 8.808594 L 2.015625 15.195312 C 2.015625 15.5625 2.316406 15.863281 2.683594 15.863281 L 5.429688 15.863281 C 5.746094 15.863281 6.054688 15.949219 6.320312 16.117188 L 13.730469 20.761719 C 13.835938 20.828125 13.960938 20.863281 14.082031 20.863281 C 14.453125 20.863281 14.75 20.566406 14.75 20.195312 L 14.75 3.8125 C 14.75 3.445312 14.453125 3.144531 14.082031 3.144531 C 13.960938 3.144531 13.835938 3.179688 13.730469 3.25 L 6.335938 7.882812 C 6.070312 8.050781 5.761719 8.140625 5.445312 8.140625 Z M 2.683594 8.140625 "/>
</g>
</svg>
